mtllib OctagonModel.mtl
g Octagon
v 0.000000 0.007019 3.333649
v -0.002502 0.001038 3.333649
v 0.000000 3.333618 3.333649
v -2.357239 0.976379 3.333649
v 0.000000 3.333618 3.333649
v -3.333679 3.333618 3.333649
v 0.000000 3.333618 3.333649
v -2.357239 5.690857 3.333649
v 0.000000 3.333618 3.333649
v 0.000000 6.667297 3.333649
v 2.357239 5.690857 3.333649
v 0.000000 3.333679 3.333649
v 3.333618 3.333618 3.333649
v -0.000122 3.333801 3.333649
v 2.357239 0.976379 3.333649
v 0.000000 0.000000 3.333649
v 0.000000 0.000000 3.333649
v -0.002502 0.001038 3.333649
v -2.357239 0.976379 3.333649
v 0.000000 0.000000 -3.333649
v -0.002502 0.001038 -3.333649
v -2.357239 0.976379 -3.333649
v -2.357239 0.976379 3.333649
v -3.333679 3.333618 3.333649
v -2.357239 0.976379 -3.333649
v -3.333679 3.333618 -3.333649
v -3.333679 3.333618 3.333649
v -2.357239 5.690857 3.333649
v -3.333679 3.333618 -3.333649
v -2.357239 5.690857 -3.333649
v -2.357239 5.690857 3.333649
v 0.000000 6.667297 3.333649
v -2.357239 5.690857 -3.333649
v 0.000000 6.667297 -3.333649
v 0.000000 6.667297 3.333649
v 2.357239 5.690857 3.333649
v 0.000000 6.667297 -3.333649
v 2.357239 5.690857 -3.333649
v 2.357239 5.690857 3.333649
v 3.333618 3.333618 3.333649
v 2.357239 5.690857 -3.333649
v 3.333618 3.333618 -3.333649
v 3.333618 3.333618 3.333649
v 2.357239 0.976379 3.333649
v 3.333618 3.333618 -3.333649
v 2.357239 0.976379 -3.333649
v 2.357239 0.976379 3.333649
v 0.000000 0.000000 3.333649
v 2.357239 0.976379 -3.333649
v 0.000000 0.000000 -3.333649
v 0.000000 0.007019 -3.333649
v -0.002502 0.001038 -3.333649
v 0.000000 3.333618 -3.333649
v -2.357239 0.976379 -3.333649
v 0.000000 3.333618 -3.333649
v -3.333679 3.333618 -3.333649
v 0.000000 3.333618 -3.333649
v -2.357239 5.690857 -3.333649
v 0.000000 3.333618 -3.333649
v 0.000000 6.667297 -3.333649
v 2.357239 5.690857 -3.333649
v 0.000000 3.333679 -3.333649
v 3.333618 3.333618 -3.333649
v -0.000122 3.333801 -3.333649
v 2.357239 0.976379 -3.333649
v 0.000000 0.000000 -3.333649
vt 0.500000 0.001051
vt 0.499628 0.000154
vt 0.499999 0.499999
vt 0.146446 0.146446
vt 0.500000 0.500000
vt 0.000000 0.500000
vt 0.500000 0.500000
vt 0.146446 0.853554
vt 0.500000 0.500000
vt 0.500000 1.000000
vt 0.853554 0.853554
vt 0.500001 0.500001
vt 1.000000 0.500000
vt 0.499980 0.500020
vt 0.853554 0.146446
vt 0.500000 0.000000
vt 1.000000 1.000000
vt 0.999869 1.000000
vt 0.875000 1.000000
vt 1.000000 0.000000
vt 0.999869 0.000000
vt 0.875000 0.000000
vt 0.875000 1.000000
vt 0.750000 1.000000
vt 0.875000 0.000000
vt 0.750000 0.000000
vt 0.750000 1.000000
vt 0.625000 1.000000
vt 0.750000 0.000000
vt 0.625000 0.000000
vt 0.625000 1.000000
vt 0.500000 1.000000
vt 0.625000 0.000000
vt 0.500000 0.000000
vt 0.500000 1.000000
vt 0.375000 1.000000
vt 0.500000 0.000000
vt 0.375000 0.000000
vt 0.375000 1.000000
vt 0.250000 1.000000
vt 0.375000 0.000000
vt 0.250000 0.000000
vt 0.250000 1.000000
vt 0.125000 1.000000
vt 0.250000 0.000000
vt 0.125000 0.000000
vt 0.125000 1.000000
vt 0.000000 1.000000
vt 0.125000 0.000000
vt 0.000000 0.000000
vt 0.500000 0.001051
vt 0.499628 0.000154
vt 0.499999 0.499999
vt 0.146446 0.146446
vt 0.500000 0.500000
vt 0.000000 0.500000
vt 0.500000 0.500000
vt 0.146446 0.853554
vt 0.500000 0.500000
vt 0.500000 1.000000
vt 0.853554 0.853554
vt 0.500001 0.500001
vt 1.000000 0.500000
vt 0.499980 0.500020
vt 0.853554 0.146446
vt 0.500000 0.000000
vn 0.000000 0.000000 1.000000
vn 0.000000 0.000000 1.000000
vn 0.000000 0.000000 1.000000
vn 0.000000 0.000000 1.000000
vn 0.000000 0.000000 1.000000
vn 0.000000 0.000000 1.000000
vn 0.000000 0.000000 1.000000
vn 0.000000 0.000000 1.000000
vn 0.000000 0.000000 1.000000
vn 0.000000 0.000000 1.000000
vn 0.000000 0.000000 1.000000
vn 0.000000 0.000000 1.000000
vn 0.000000 0.000000 1.000000
vn 0.000000 0.000000 1.000000
vn 0.000000 0.000000 1.000000
vn 0.000000 0.000000 1.000000
vn -0.382611 -0.923910 0.000000
vn -0.382001 -0.922336 0.000000
vn -0.382682 -0.923880 0.000000
vn -0.382611 -0.923910 0.000000
vn -0.382001 -0.922336 0.000000
vn -0.382682 -0.923880 0.000000
vn -0.922321 -0.382036 0.000000
vn -0.922321 -0.382036 0.000000
vn -0.923880 -0.382682 0.000000
vn -0.923880 -0.382682 0.000000
vn -0.922321 0.382036 0.000000
vn -0.922321 0.382036 0.000000
vn -0.923880 0.382682 0.000000
vn -0.923880 0.382682 0.000000
vn -0.382036 0.922321 0.000000
vn -0.382036 0.922321 0.000000
vn -0.382682 0.923880 0.000000
vn -0.382682 0.923880 0.000000
vn 0.382036 0.922321 0.000000
vn 0.382036 0.922321 0.000000
vn 0.382682 0.923880 0.000000
vn 0.382682 0.923880 0.000000
vn 0.922321 0.382036 0.000000
vn 0.922321 0.382036 0.000000
vn 0.922321 0.382036 0.000000
vn 0.922321 0.382036 0.000000
vn 0.922321 -0.382036 0.000000
vn 0.922321 -0.382036 0.000000
vn 0.922321 -0.382036 0.000000
vn 0.922321 -0.382036 0.000000
vn 0.382036 -0.922321 0.000000
vn 0.382036 -0.922321 0.000000
vn 0.382036 -0.922321 0.000000
vn 0.382036 -0.922321 0.000000
vn 0.000000 0.000000 -1.000000
vn 0.000000 0.000000 -1.000000
vn 0.000000 0.000000 -1.000000
vn 0.000000 0.000000 -1.000000
vn 0.000000 0.000000 -1.000000
vn 0.000000 0.000000 -1.000000
vn 0.000000 0.000000 -1.000000
vn 0.000000 0.000000 -1.000000
vn 0.000000 0.000000 -1.000000
vn 0.000000 0.000000 -1.000000
vn 0.000000 0.000000 -1.000000
vn 0.000000 0.000000 -1.000000
vn 0.000000 0.000000 -1.000000
vn 0.000000 0.000000 -1.000000
vn 0.000000 0.000000 -1.000000
vn 0.000000 0.000000 -1.000000
usemtl Octagon Front Inflation Material
f 3/3/3 4/4/4 1/1/1
f 5/5/5 6/6/6 3/3/3
f 7/7/7 8/8/8 5/5/5
f 9/9/9 10/10/10 14/14/14
f 11/11/11 10/10/10 12/12/12
f 13/13/13 11/11/11 12/12/12
f 14/14/14 15/15/15 9/9/9
f 7/7/7 5/5/5 15/15/15
f 2/2/2 16/16/16 1/1/1
f 2/2/2 1/1/1 4/4/4
f 4/4/4 3/3/3 6/6/6
f 6/6/6 5/5/5 8/8/8
f 10/10/10 8/8/8 14/14/14
f 7/7/7 14/14/14 8/8/8
f 9/9/9 12/12/12 10/10/10
f 9/9/9 15/15/15 12/12/12
f 13/13/13 12/12/12 15/15/15
f 14/14/14 7/7/7 15/15/15
f 5/5/5 3/3/3 15/15/15
f 3/3/3 1/1/1 15/15/15
f 16/16/16 15/15/15 1/1/1
usemtl Octagon Front Bevel Material
f 1/1/1 1/1/1 1/1/1
usemtl Octagon Extrusion Material
f 20/20/20 17/17/17 18/18/18
f 20/20/20 18/18/18 21/21/21
f 21/21/21 18/18/18 19/19/19
f 21/21/21 19/19/19 22/22/22
f 25/25/25 23/23/23 24/24/24
f 25/25/25 24/24/24 26/26/26
f 29/29/29 27/27/27 28/28/28
f 29/29/29 28/28/28 30/30/30
f 33/33/33 31/31/31 32/32/32
f 33/33/33 32/32/32 34/34/34
f 37/37/37 35/35/35 36/36/36
f 37/37/37 36/36/36 38/38/38
f 41/41/41 39/39/39 40/40/40
f 41/41/41 40/40/40 42/42/42
f 45/45/45 43/43/43 44/44/44
f 45/45/45 44/44/44 46/46/46
f 49/49/49 47/47/47 48/48/48
f 49/49/49 48/48/48 50/50/50
usemtl Octagon Back Bevel Material
f 1/1/1 1/1/1 1/1/1
usemtl Octagon Back Inflation Material
f 54/54/54 53/53/53 51/51/51
f 56/56/56 55/55/55 53/53/53
f 58/58/58 57/57/57 55/55/55
f 60/60/60 59/59/59 64/64/64
f 60/60/60 61/61/61 62/62/62
f 61/61/61 63/63/63 62/62/62
f 65/65/65 64/64/64 59/59/59
f 55/55/55 57/57/57 65/65/65
f 66/66/66 52/52/52 51/51/51
f 51/51/51 52/52/52 54/54/54
f 53/53/53 54/54/54 56/56/56
f 55/55/55 56/56/56 58/58/58
f 58/58/58 60/60/60 64/64/64
f 64/64/64 57/57/57 58/58/58
f 62/62/62 59/59/59 60/60/60
f 65/65/65 59/59/59 62/62/62
f 62/62/62 63/63/63 65/65/65
f 57/57/57 64/64/64 65/65/65
f 53/53/53 55/55/55 65/65/65
f 51/51/51 53/53/53 65/65/65
f 65/65/65 66/66/66 51/51/51
